<?xml version="1.0" encoding="UTF-8"?>
<svg width="48px" height="48px" viewBox="0 0 48 48" version="1.1" xmlns="http://www.w3.org/2000/svg" xmlns:xlink="http://www.w3.org/1999/xlink">
    <!-- Generator: Sketch 64 (93537) - https://sketch.com -->
    <title>savings_48</title>
    <desc>Created with Sketch.</desc>
    <g id="savings_48" stroke="none" stroke-width="1" fill="none" fill-rule="evenodd">
        <g id="Icon-/-Illustrative-/-Filled-/-Colour-/-Savings-/-48px">
            <g id="Savings-colour">
                <polygon id="Path" points="0 0 48 0 48 48 0 48"></polygon>
                <path d="M43,5.12 C42.2262543,7.95124422 41.6053574,10.8220578 41.14,13.72 C42.8192864,16.1732421 43.8071859,19.0333146 44,22 L46,22 C47.1045695,22 48,22.8954305 48,24 L48,28.74 C48,29.5600384 47.6635516,30.3441736 47.07,30.91 C43.6320018,34.3690442 39.5250906,37.0911064 35,38.91 L35,42.5 C35,43.6045695 34.1045695,44.500016 33,44.500016 L29.49,44.500016 C28.6038809,44.5013045 27.8225433,43.9193708 27.57,43.07 L26.89,40.81 C25.9321398,40.9392949 24.9665431,41.002777 24,41 C22.3170915,41.0005615 20.6396012,40.8093276 19,40.43 L19,42.5 C19,43.6045695 18.1045695,44.500016 17,44.500016 L13.37,44.500016 C12.5442614,44.5032942 11.8013904,43.9987775 11.5,43.23 L7.64,33.35 C5.29844897,30.406856 4.01621497,26.7609434 4,23 L4,22.73 C2.02333014,22.2108744 0.513884733,20.6128658 0.108181351,18.6098381 C-0.297522031,16.6068104 0.471128137,14.5473849 2.09,13.3 C2.37746797,13.0804049 2.74057784,12.984385 3.09901768,13.0331778 C3.45745752,13.0819707 3.78168927,13.2715554 4,13.56 C4.21748266,13.8409866 4.3125005,14.1977863 4.26356844,14.5497207 C4.21463638,14.9016552 4.02588714,15.2190006 3.74,15.43 C2.97534322,15.995435 2.57230572,16.9272563 2.68390232,17.8716943 C2.79549892,18.8161322 3.40461608,19.6283553 4.28,20 C5.88,11.48 14.1,5 24,5 C27.82291,4.98408235 31.5813077,5.98494125 34.89,7.9 C37.32,4.73 43.82,2.26 43,5.12 Z" id="Path" fill="#F2609E"></path>
                <line x1="23.56" y1="15" x2="23.56" y2="16.63" id="Path" stroke="#FFFFFF" stroke-width="2" stroke-linecap="round" stroke-linejoin="round"></line>
                <line x1="23.56" y1="31.26" x2="23.56" y2="32.89" id="Path" stroke="#FFFFFF" stroke-width="2" stroke-linecap="round" stroke-linejoin="round"></line>
                <path d="M19,27.33 C19,29.2 21,30.72 23.49,30.72 C25.98,30.72 28,29.2 28,27.33 C28,25.46 26,23.94 23.51,23.94 C21.02,23.94 19,22.43 19,20.56 C19,18.69 21,17.17 23.49,17.17 C25.98,17.17 28,18.69 28,20.56" id="Path" stroke="#FFFFFF" stroke-width="2" stroke-linecap="round" stroke-linejoin="round"></path>
            </g>
        </g>
    </g>
</svg>