<?xml version="1.0" encoding="utf-8"?>
<!-- Generator: Adobe Illustrator 24.3.0, SVG Export Plug-In . SVG Version: 6.00 Build 0)  -->
<svg version="1.1" id="Capa_1" xmlns="http://www.w3.org/2000/svg" xmlns:xlink="http://www.w3.org/1999/xlink" x="0px" y="0px"
	 viewBox="0 0 139.4 100" style="enable-background:new 0 0 139.4 100;" xml:space="preserve">
<style type="text/css">
	.st0{fill:none;}
	.st1{fill-rule:evenodd;clip-rule:evenodd;fill:#7849B8;}
	.st2{fill:none;stroke:#FFFFFF;stroke-width:2;stroke-linecap:round;stroke-linejoin:round;}
	.st3{fill:none;stroke:#333333;stroke-width:2;stroke-linecap:round;stroke-linejoin:round;}
</style>
<g id="transfer_48">
	<g id="Icon-_x2F_-Illustrative-_x2F_-Filled-_x2F_-Colour-_x2F_-Transfer-_x2F_-48px">
		<g id="Transfer-colour">
			<polygon id="Path" class="st0" points="1,-18.7 138.4,-18.7 138.4,118.7 1,118.7 			"/>
			<path id="Path_1_" class="st1" d="M1,50C1,23.1,22.8,1.3,49.7,1.3S98.4,23.1,98.4,50S76.6,98.7,49.7,98.7
				c-12.9,0-25.3-5.1-34.4-14.3S1,62.9,1,50z"/>
			<line id="Path_2_" class="st2" x1="50.6" y1="21.4" x2="50.6" y2="26.8"/>
			<line id="Path_3_" class="st2" x1="50.6" y1="75.8" x2="50.6" y2="81.2"/>
			<path id="Path_4_" class="st2" d="M35.4,62.6c0,6.2,6.7,11.3,15,11.3s15-5.1,15-11.3s-6.7-11.3-15-11.3s-15-5.1-15-11.3
				s6.7-11.5,15-11.5s15,5.1,15,11.5"/>
			<polyline id="Path_5_" class="st3" points="120.3,59.9 104.5,75.9 120.3,91.9 			"/>
			<line id="Path_6_" class="st3" x1="106.3" y1="75.8" x2="134.9" y2="75.8"/>
			<polyline id="Path_7_" class="st3" points="119.3,8.4 135.1,24.4 119.3,40.4 			"/>
			<line id="Path_8_" class="st3" x1="133.4" y1="24.2" x2="104.7" y2="24.2"/>
		</g>
	</g>
</g>
</svg>
