<svg xmlns="http://www.w3.org/2000/svg" viewBox="0 0 60 60"><g fill-rule="evenodd"><g fill="#ffc49c"><path d="M50.3 44.3c.2 0 .4-.1.7-.1 1.7 0 3 1.3 3 3 0 2.2-1.6 4-3.7 4.4l-5.3.9H24a6.02 6.02 0 0 1-6-6h22.5l9.8-2.2z"/><path d="M45.8 44.3c.2 0 .4-.1.7-.1 1.7 0 3 1.3 3 3 0 2.2-1.6 4-3.7 4.4l-5.3.9H24a6.02 6.02 0 0 1-6-6h18l9.8-2.2z"/><path d="M41.3 44.3c.2 0 .4-.1.7-.1 1.7 0 3 1.3 3 3 0 2.2-1.6 4-3.7 4.4l-5.3.9H24a6.02 6.02 0 0 1-6-6h13.5l9.8-2.2z"/></g><path d="M39 18a8.96 8.96 0 0 1 9 9v4.5a8.96 8.96 0 0 1-9 9 8.96 8.96 0 0 1-9-9V27a8.96 8.96 0 0 1 9-9z" fill="#2b7aff"/><path d="M30 19.5h18v15H30z" fill="#609aff"/><path d="M33 40.5h-7.5c-4.1 0-7.5 3.4-7.5 7.5s3.4 7.5 7.5 7.5H33a1.54 1.54 0 0 0 1.5-1.5V42a1.54 1.54 0 0 0-1.5-1.5z" fill="#ffc69b"/><path d="M24 42v12h-9V42z" fill="#ffc49c"/><g fill="#ffd9c0"><path d="M28.5 40.5A4.48 4.48 0 0 1 33 45v3H18v-3a4.48 4.48 0 0 1 4.5-4.5h6z"/><path d="M35.2 40.5a3.8 3.8 0 0 1 3.8 3.8c0 2.1-1.7 3.7-3.8 3.7H18c0-4.1 3.4-7.5 7.5-7.5h9.7z"/></g><circle cx="39" cy="19.5" r="15" fill="#609aff"/><path d="M52.7 44.7c.3-.1.6-.1.9-.1A3.37 3.37 0 0 1 57 48c0 2.6-1.8 4.9-4.4 5.6L45 55.5H25.5c-4.1 0-7.5-3.4-7.5-7.5h22.5l12.2-3.3z" fill="#ffd9c0"/><path d="M9 37.5a1.54 1.54 0 0 1 1.5 1.5v16.5A1.54 1.54 0 0 1 9 57H4.5A1.54 1.54 0 0 1 3 55.5V39a1.54 1.54 0 0 1 1.5-1.5H9z" fill="#0063bd"/><path d="M15 39a1.54 1.54 0 0 1 1.5 1.5V54a1.54 1.54 0 0 1-1.5 1.5h-4.5V39H15z" fill="#ebf3fc"/><path d="M31.5 36h15a1.54 1.54 0 0 1 1.5 1.5 1.54 1.54 0 0 1-1.5 1.5h-15a1.54 1.54 0 0 1-1.5-1.5 1.54 1.54 0 0 1 1.5-1.5z" fill="#cde2ff"/><path d="M28.5 34.5h21A1.54 1.54 0 0 1 51 36a1.54 1.54 0 0 1-1.5 1.5h-21A1.54 1.54 0 0 1 27 36a1.54 1.54 0 0 1 1.5-1.5z" fill="#a9ceff"/><path d="M39 11.6a1.11 1.11 0 0 1 1.1 1.1v.8a1.11 1.11 0 0 1-1.1 1.1 1.11 1.11 0 0 1-1.1-1.1v-.8c-.1-.7.4-1.1 1.1-1.1zM39 24a1.11 1.11 0 0 1 1.1 1.1v1a1.11 1.11 0 0 1-1.1 1.1 1.11 1.11 0 0 1-1.1-1.1v-1c-.1-.6.4-1.1 1.1-1.1z" fill="#fff"/></g><text transform="translate(34.044 26)" fill="#fff" font-family="Flexo-Black" font-size="18">S</text><path d="M40.1 3.1A1.11 1.11 0 0 1 39 4.2a1.11 1.11 0 0 1-1.1-1.1V1.5A1.11 1.11 0 0 1 39 .4a1.11 1.11 0 0 1 1.1 1.1v1.6zM22.6 18.5a1.11 1.11 0 0 1 1.1 1.1 1.11 1.11 0 0 1-1.1 1.1H21a1.11 1.11 0 0 1-1.1-1.1 1.11 1.11 0 0 1 1.1-1.1h1.6zm34.4 0a1.11 1.11 0 0 1 1.1 1.1 1.11 1.11 0 0 1-1.1 1.1h-1.6a1.11 1.11 0 0 1-1.1-1.1 1.11 1.11 0 0 1 1.1-1.1H57zM26.6 30.4c.4-.4 1.2-.4 1.6 0s.4 1.2 0 1.6L27 33.2c-.4.4-1.2.4-1.6 0s-.4-1.2 0-1.6l1.2-1.2zM50.9 6.1c.4-.4 1.2-.4 1.6 0s.4 1.2 0 1.6l-1.2 1.2c-.4.4-1.2.4-1.6 0s-.4-1.2 0-1.6l1.2-1.2zM28.2 7.3c.4.4.4 1.2 0 1.6s-1.2.4-1.6 0l-1.2-1.2c-.4-.4-.4-1.2 0-1.6s1.2-.4 1.6 0l1.2 1.2zm24.3 24.3c.4.4.4 1.2 0 1.6s-1.2.4-1.6 0L49.8 32c-.4-.4-.4-1.2 0-1.6s1.2-.4 1.6 0l1.1 1.2z" fill="#ff9333"/></svg>